{
  "accessors": [
    {
      "bufferView": 2,
      "componentType": 5126,
      "count": 308,
      "max": [
        1.1301743984222412,
        2.1351935863494873,
        0.4148835241794586
      ],
      "min": [
        -1.1218106746673584,
        -2.1337101459503174,
        -0.5622669458389282
      ],
      "type": "VEC3"
    },
    {
      "bufferView": 2,
      "byteOffset": 3696,
      "componentType": 5126,
      "count": 308,
      "max": [
        1.0,
        1.0,
        0.9999995231628418
      ],
      "min": [
        -1.0,
        -1.0,
        -1.0
      ],
      "type": "VEC3"
    },
    {
      "bufferView": 1,
      "componentType": 5126,
      "count": 308,
      "max": [
        0.4613550305366516,
        0.8466289043426514
      ],
      "min": [
        0.033144738525152206,
        0.7996008396148682
      ],
      "type": "VEC2"
    },
    {
      "bufferView": 0,
      "componentType": 5125,
      "count": 540,
      "type": "SCALAR"
    },
    {
      "bufferView": 2,
      "byteOffset": 7392,
      "componentType": 5126,
      "count": 144,
      "max": [
        0.6983451843261719,
        1.1748114824295044,
        0.8584725856781006
      ],
      "min": [
        -0.6899814009666443,
        -0.813383936882019,
        0.09894809126853943
      ],
      "type": "VEC3"
    },
    {
      "bufferView": 2,
      "byteOffset": 9120,
      "componentType": 5126,
      "count": 144,
      "max": [
        0.9996885657310486,
        0.9998045563697815,
        1.0
      ],
      "min": [
        -0.9996885061264038,
        -0.961887776851654,
        -0.9996950626373291
      ],
      "type": "VEC3"
    },
    {
      "bufferView": 1,
      "byteOffset": 2464,
      "componentType": 5126,
      "count": 144,
      "max": [
        0.32428857684135437,
        0.8192936182022095
      ],
      "min": [
        0.06786561012268066,
        0.7927985191345215
      ],
      "type": "VEC2"
    },
    {
      "bufferView": 0,
      "byteOffset": 2160,
      "componentType": 5125,
      "count": 258,
      "type": "SCALAR"
    },
    {
      "bufferView": 2,
      "byteOffset": 10848,
      "componentType": 5126,
      "count": 76,
      "max": [
        0.5021253228187561,
        0.1385517120361328,
        0.4000406563282013
      ],
      "min": [
        -0.4937615692615509,
        -1.1198259592056274,
        0.05137002468109131
      ],
      "type": "VEC3"
    },
    {
      "bufferView": 2,
      "byteOffset": 11760,
      "componentType": 5126,
      "count": 76,
      "max": [
        1.0,
        0.39563021063804626,
        0.9998868107795715
      ],
      "min": [
        -1.0,
        -1.0,
        -0.9999457597732544
      ],
      "type": "VEC3"
    },
    {
      "bufferView": 1,
      "byteOffset": 3616,
      "componentType": 5126,
      "count": 76,
      "max": [
        0.3542454242706299,
        0.9569225907325745
      ],
      "min": [
        0.20394688844680786,
        0.7857718467712402
      ],
      "type": "VEC2"
    },
    {
      "bufferView": 0,
      "byteOffset": 3192,
      "componentType": 5125,
      "count": 174,
      "type": "SCALAR"
    },
    {
      "bufferView": 2,
      "byteOffset": 12672,
      "componentType": 5126,
      "count": 558,
      "max": [
        1.1206068992614746,
        2.030374526977539,
        0.10374967008829117
      ],
      "min": [
        -1.1122430562973022,
        -2.0929627418518066,
        -0.861786961555481
      ],
      "type": "VEC3"
    },
    {
      "bufferView": 2,
      "byteOffset": 19368,
      "componentType": 5126,
      "count": 558,
      "max": [
        1.0,
        1.0,
        1.0
      ],
      "min": [
        -1.0,
        -1.0,
        -1.0
      ],
      "type": "VEC3"
    },
    {
      "bufferView": 1,
      "byteOffset": 4224,
      "componentType": 5126,
      "count": 558,
      "max": [
        0.4507843554019928,
        0.9055681228637695
      ],
      "min": [
        0.3223625421524048,
        0.818675696849823
      ],
      "type": "VEC2"
    },
    {
      "bufferView": 0,
      "byteOffset": 3888,
      "componentType": 5125,
      "count": 1518,
      "type": "SCALAR"
    }
  ],
  "asset": {
    "extras": {
      "author": "alex-toma (https://sketchfab.com/alex-toma)",
      "license": "CC-BY-4.0 (http://creativecommons.org/licenses/by/4.0/)",
      "source": "https://sketchfab.com/3d-models/panzer-iii-low-poly-tank-2d233db134ec41b29b66180c91d62245",
      "title": "panzer III low-poly tank"
    },
    "generator": "Sketchfab-12.65.0",
    "version": "2.0"
  },
  "bufferViews": [
    {
      "buffer": 0,
      "byteLength": 9960,
      "name": "floatBufferViews",
      "target": 34963
    },
    {
      "buffer": 0,
      "byteLength": 8688,
      "byteOffset": 9960,
      "byteStride": 8,
      "name": "floatBufferViews",
      "target": 34962
    },
    {
      "buffer": 0,
      "byteLength": 26064,
      "byteOffset": 18648,
      "byteStride": 12,
      "name": "floatBufferViews",
      "target": 34962
    }
  ],
  "buffers": [
    {
      "byteLength": 44712,
      "uri": "scene.bin"
    }
  ],
  "images": [
    {
      "uri": "textures/Material.001_baseColor.png"
    }
  ],
  "materials": [
    {
      "doubleSided": true,
      "name": "Material.001",
      "pbrMetallicRoughness": {
        "baseColorTexture": {
          "index": 0
        },
        "metallicFactor": 0.22059628258212793,
        "roughnessFactor": 0.8868629150101524
      }
    }
  ],
  "meshes": [
    {
      "name": "Hull_Material.001_0",
      "primitives": [
        {
          "attributes": {
            "NORMAL": 1,
            "POSITION": 0,
            "TEXCOORD_0": 2
          },
          "indices": 3,
          "material": 0,
          "mode": 4
        }
      ]
    },
    {
      "name": "Turret_Material.001_0",
      "primitives": [
        {
          "attributes": {
            "NORMAL": 5,
            "POSITION": 4,
            "TEXCOORD_0": 6
          },
          "indices": 7,
          "material": 0,
          "mode": 4
        }
      ]
    },
    {
      "name": "Gun_Material.001_0",
      "primitives": [
        {
          "attributes": {
            "NORMAL": 9,
            "POSITION": 8,
            "TEXCOORD_0": 10
          },
          "indices": 11,
          "material": 0,
          "mode": 4
        }
      ]
    },
    {
      "name": "Tracks_Material.001_0",
      "primitives": [
        {
          "attributes": {
            "NORMAL": 13,
            "POSITION": 12,
            "TEXCOORD_0": 14
          },
          "indices": 15,
          "material": 0,
          "mode": 4
        }
      ]
    }
  ],
  "nodes": [
    {
      "children": [
        1
      ],
      "matrix": [
        1.0,
        0.0,
        0.0,
        0.0,
        0.0,
        2.220446049250313e-16,
        -1.0,
        0.0,
        0.0,
        1.0,
        2.220446049250313e-16,
        0.0,
        0.0,
        0.0,
        0.0,
        1.0
      ],
      "name": "Sketchfab_model"
    },
    {
      "children": [
        2
      ],
      "matrix": [
        0.009999999776482582,
        0.0,
        0.0,
        0.0,
        0.0,
        0.0,
        0.009999999776482582,
        0.0,
        0.0,
        -0.009999999776482582,
        0.0,
        0.0,
        0.0,
        0.0,
        0.0,
        1.0
      ],
      "name": "panzer III low poly.fbx"
    },
    {
      "children": [
        3,
        5,
        7,
        9
      ],
      "name": "RootNode"
    },
    {
      "children": [
        4
      ],
      "matrix": [
        100.0,
        0.0,
        0.0,
        0.0,
        0.0,
        -1.629206793918314e-05,
        -99.99999999999868,
        0.0,
        0.0,
        99.99999999999868,
        -1.629206793918314e-05,
        0.0,
        0.0,
        0.0,
        0.0,
        1.0
      ],
      "name": "Hull"
    },
    {
      "mesh": 0,
      "name": "Hull_Material.001_0"
    },
    {
      "children": [
        6
      ],
      "matrix": [
        100.0,
        0.0,
        0.0,
        0.0,
        0.0,
        -1.629206793918314e-05,
        -99.99999999999868,
        0.0,
        0.0,
        99.99999999999868,
        -1.629206793918314e-05,
        0.0,
        0.0,
        21.904987335205078,
        11.275744438171387,
        1.0
      ],
      "name": "Turret"
    },
    {
      "mesh": 1,
      "name": "Turret_Material.001_0"
    },
    {
      "children": [
        8
      ],
      "matrix": [
        100.0,
        0.0,
        0.0,
        0.0,
        0.0,
        -1.629206793918314e-05,
        -99.99999999999868,
        0.0,
        0.0,
        99.99999999999868,
        -1.629206793918314e-05,
        0.0,
        8.390230648918848e-15,
        37.78623962402344,
        83.7868881225586,
        1.0
      ],
      "name": "Gun"
    },
    {
      "mesh": 2,
      "name": "Gun_Material.001_0"
    },
    {
      "children": [
        10
      ],
      "matrix": [
        100.0,
        0.0,
        0.0,
        0.0,
        0.0,
        -1.629206793918314e-05,
        -99.99999999999868,
        0.0,
        0.0,
        99.99999999999868,
        -1.629206793918314e-05,
        0.0,
        0.0,
        0.0,
        0.0,
        1.0
      ],
      "name": "Tracks"
    },
    {
      "mesh": 3,
      "name": "Tracks_Material.001_0"
    }
  ],
  "samplers": [
    {
      "magFilter": 9729,
      "minFilter": 9987,
      "wrapS": 10497,
      "wrapT": 10497
    }
  ],
  "scene": 0,
  "scenes": [
    {
      "name": "Sketchfab_Scene",
      "nodes": [
        0
      ]
    }
  ],
  "textures": [
    {
      "sampler": 0,
      "source": 0
    }
  ]
}
